# xmcd
#
# Track frame offsets: 
#        150
#        6097
#        19186
#        36473
#        46352
#        59027
#        75515
#        87757
#        106441
#        136486
#
# Disc length: 2013 seconds
#
# Revision: 0
# Processed by: cddbd v1.5.2PL0 Copyright (c) Steve Scherf et al.
# Submitted via: ExactAudioCopy v0.95b4
#
DISCID=8007db0a
DTITLE=Various Artist - Dzisiaj na ziemie przychodzi Gosc - Koledy i Pastoral
DTITLE=ki
DYEAR=2005
DGENRE=Contemporary Christian
TTITLE0=Wsrod nocnej ciszy - Jan Pawel II and Jozef i Joszko Broda
TTITLE1=Przybiezeli do Betlejem - Antonina Krzyszton
TTITLE2=Lulajze Jezuniu - Viola i New Day
TTITLE3=Aniol pastezom mowil - Magda Aniol z zespolem
TTITLE4=Hula wiatr - Pawel Orkisz
TTITLE5=Z narodzenia Pana - Viola i New Day
TTITLE6=Dzisiaj w Betlejem - Magda Aniol z zespolem
TTITLE7=Mizerna, cicha - Antonina Krzyszton
TTITLE8=Krakowska koleda - Pawel Orkisz
TTITLE9=Dzisiaj na ziemi przychodzi Gosc - redakcja Goscia Niedzielneg
TTITLE9=o
EXTD=
EXTT0=
EXTT1=
EXTT2=
EXTT3=
EXTT4=
EXTT5=
EXTT6=
EXTT7=
EXTT8=
EXTT9=
PLAYORDER=
